<?xml version="1.0" encoding="UTF-8"?>
<svg id="Layer_1" xmlns="http://www.w3.org/2000/svg" xmlns:xlink="http://www.w3.org/1999/xlink" viewBox="0 0 288.16 288.16">
  <defs>
    <style>
      .cls-1 {
        fill: #efcc6b;
      }

      .cls-2 {
        fill: #96c93d;
      }

      .cls-3 {
        fill: #694d28;
      }

      .cls-4 {
        fill: #1e301b;
      }

      .cls-5 {
        fill: #fbe369;
      }

      .cls-6 {
        fill: url(#Gradient-Green-New);
      }

      .cls-7 {
        fill: #ea8e6d;
      }

      .cls-8 {
        fill: #ede669;
      }

      .cls-9 {
        fill: #736dad;
      }
    </style>
    <linearGradient id="Gradient-Green-New" x1="196.06" y1="285.62" x2="196.06" y2="71.44" gradientTransform="translate(-39.46 -31.85) rotate(4.54)" gradientUnits="userSpaceOnUse">
      <stop offset="0" stop-color="#7ec575"/>
      <stop offset=".27" stop-color="#43a456"/>
      <stop offset=".43" stop-color="#269448"/>
      <stop offset=".61" stop-color="#177840"/>
      <stop offset=".86" stop-color="#065838"/>
      <stop offset="1" stop-color="#004c35"/>
    </linearGradient>
  </defs>
  <g>
    <polyline class="cls-7" points="83.08 50.82 83.08 39.72 80.78 39.72 80.78 50.82"/>
    <polyline class="cls-7" points="87.58 50.89 87.58 39.79 85.29 39.79 85.29 50.89"/>
    <path class="cls-5" d="M96.04,30.64c-.59-4.33-4.35-7.42-8.61-7.34,0,0-7-.65-7.35-.29s2.8,1.66,2.8,1.66h.04c-2.67,1.75-4.26,4.91-3.8,8.29.02.14.07.27.1.41-4.81-3.15-9.52-5.31-8.65-.87,1.69,8.67,13.82,8.31,17.92,7.8l.26-.04c4.67-.64,7.94-4.95,7.3-9.62"/>
    <path class="cls-7" d="M99.97,32.47c.03.38-4.39,2.17-5.13,2.01s-1.85-2.05-1.75-2.8,1.37-1.32,1.98-1.37,4.87,1.78,4.9,2.16"/>
    <circle class="cls-4" cx="89.56" cy="29.86" r="1.59"/>
  </g>
  <path class="cls-4" d="M110.51,264.98c-9.53.57-23.82.74-38.2-4.26-13.15-4.36-23.96-12.55-30.47-23.08l-.45-.76c-4.77-8.26-8.12-17.66-10.53-29.57-3.84-17.15-6.45-35.12-8.22-56.51-2.01-21.67-2.28-42.27-.8-60.98v-.24c.22-8.76.85-17.28,6.06-25.17,5.43-8.49,15.55-14.54,29.87-17.62,6.19-1.31,12.39-2.15,18.51-2.52,4.56-.27,9.16-.29,13.68-.04h1.45c8.63-.04,31.33-.15,41.45,19.55.98,1.86,1.96,4.13,2.71,6.77.69-.05,1.41-.1,2.15-.14,4.84-.29,9.72-.39,11.68-.38,1.88,0,3.81.03,5.75.12,3.04-10.11,12.06-23.31,38.1-25.99l1.1-.11c1.81-.14,3.62-.27,5.43-.38,11.19-.67,21.27-.54,30.8.38,14.46,1.23,26.21,10.22,31.48,24.13l.3.82c2.88,8.32,2.78,15.79,2.71,20.74-.01.88-.05,1.77,0,2.66,2.15,25.81,2.73,52.49,1.72,79.32-.6,12.29-1.68,26.37-5.3,40.16-2.17,8.08-4.96,14.76-8.57,20.55-4.4,7.35-10.46,13.19-17.59,16.96-6.68,3.69-13.33,5.22-17.78,6.24l-1.04.23c-5.9,1.2-13.2,2.13-20.02,2.54-20.32,1.22-34.67-1.94-44.9-9.91-11.68,13.82-28.66,15.43-36.82,16.2-1.69.14-2.97.23-4.26.31Z"/>
  <path class="cls-6" d="M232.9,204.39c-1.17,4.38-2.76,8.78-5.24,12.64-1.44,2.53-3.57,4.95-6.38,6.32-3.15,1.87-7.04,2.68-10.69,3.56-9.93,2.04-33.65,4.45-41.25-2.1-2.16-1.7-3.35-4.5-4.14-7.15-2.71-8.04-13.5-54.48-15.48-62.82-2.65,14.14-11.21,63.4-20.62,74.42-3.83,4.58-11.19,5.41-17.12,5.99-10,.79-20.71.83-30.15-2.51-5.9-1.94-11.63-5.45-14.86-10.65-3.67-6.35-5.74-13.63-7.22-20.93-1.09-8.56-8.7,10.25-12.95-.68-4.19-10.92-3.05-17.83-1.89-26.62,1.31-8.31,8.71-12.6,7.2-25.49-1.24-13.22-1.82-26.67-1.53-40l6.17-24.39,26.41-10.37c1.94-.02,3.88.01,5.81.17,4.93.1,15.59-.76,17.71,3.64.67,1.23.75,2.47.59,3.69-1.19,10.55-1.57,21.29-2.19,32-.52,15.43-1.24,31.14.13,46.48,4.17-11.79,7.09-24.08,11.44-35.92l10.95-16.37c.06-.05.07-.11.13-.17l1.07-1.62.53-.78,2.4-1.4c.06-.05.19-.16.31-.21l5.36-3.1c4.67-.33,9.98-.5,11.92-.47,1.53,0,4.24-.02,6.92.26h.06c3.39.33,6.8,1.02,8.15,2.53,6.6,7.23,21.42,48.05,25.6,56.86-.54-17.69-1.65-35.48-3.54-53.22v-.06s3.17-19.81,3.17-19.81v-.12s.93-5.69.93-5.69l4.41-1.47,1.14-.32.06-.05,19.21-6.3c6.26-.33,11.98-.52,14.43-.27.35.03.66-.12.97-.39v.06s2.98-1.23,2.98-1.23l3.67-8.47c1.14.44,8.98,12.83-1.61,20.23-.96.28-.6.83-.5,1.14.7,3.06-.17,5.87.17,11.19,2.11,25.34,2.61,50.8,1.66,76.19-.55,11.31-1.46,22.88-4.33,33.77Z"/>
  <path class="cls-8" d="M83.17,73.62c-6.49.02-12.92.73-19.18,2.06-2.64.57-9.92,2.65-11.42,5-1.13,1.71-1.13,8.7-1.21,10.77-.46,5.61-.69,11.26-.8,16.93l4.45-17.49c1.1-4.32,4.21-7.85,8.37-9.48l19.79-7.77Z"/>
  <path class="cls-2" d="M80.33,109.56s-9.45,12.95,1.93,23.45c0,0-2.83,20.94,17.67,22.37,0,0,7.39-15.38-2.94-27.66,0,0-.05-22.03-16.65-18.16"/>
  <path class="cls-3" d="M52.06,48.24s37.19,8.87,29.29,39.72c-7.9,30.85,14.75,55,14.75,55,0,0-16.49-40.96-8.3-57.39,8.19-16.43,2.26-29.36-11.96-37.11-5.31-2.89-13.11-4.94-16.87-4.76-6.3.3-6.91,4.54-6.91,4.54Z"/>
  <path class="cls-8" d="M156.63,99.87l-.37-.04c-2.68-.27-5.39-.25-6.92-.26-1.94-.04-7.25.13-11.92.47-3.32.27-6.28.62-7.56,1.11-2.5,1.1-5.1,4.95-7.31,9.13-2.35,4.34-4.25,9.02-5.21,11.59-.22.57-.45,1.2-.67,1.83l13.31-15.61c.95-1.11,2.22-1.9,3.63-2.25l23.59-5.89-.56-.06Z"/>
  <path class="cls-8" d="M215.46,72.18c-6.68.41-13.96.95-18.75,1.33-2.55.27-5.99.58-8.77,1.54-2.42.87-4.29,2.19-4.64,4.4-.5,1.9,1.16,9.8,1.53,11.83.61,4.87,1.17,9.74,1.72,14.67l3.16-19.81v-.12c.55-3.13,2.58-5.74,5.4-7.1h.06s34.73-7,34.73-7c-2.45-.25-8.17-.06-14.43.27Z"/>
  <path class="cls-9" d="M58.79,209.34s-1.19,11.5-9.62,9.49c-8.43-2.01-3.97-7.47-3.97-7.47,0,0-8.38,1.49-8.56-6.57-.18-8.06,8.86-7.01,8.86-7.01,0,0-3.61-3.18-.7-6.8,2.91-3.62,6.6,3.62,6.6,3.62,0,0,9.27-10.36,11.84-.72,2.57,9.64-4.01,6.85-4.01,6.85,0,0,10.33,4.45,6.61,8.93-3.72,4.48-7.06-.3-7.06-.3Z"/>
  <circle class="cls-1" cx="51.06" cy="203.48" r="3.96"/>
</svg>